<svg xmlns="http://www.w3.org/2000/svg" xmlns:xlink="http://www.w3.org/1999/xlink" width="1000" zoomAndPan="magnify" viewBox="0 0 750 225" height="300" preserveAspectRatio="xMidYMid meet" version="1.0"><defs><clipPath id="5f59b8091d"><path d="M 34.605469 60 L 166 60 L 166 210 L 34.605469 210 Z M 34.605469 60 " clip-rule="nonzero"/></clipPath><clipPath id="ac2dbab65e"><path d="M 340 14.09375 L 478 14.09375 L 478 210 L 340 210 Z M 340 14.09375 " clip-rule="nonzero"/></clipPath><clipPath id="ce5f3345b4"><path d="M 660 154 L 715.605469 154 L 715.605469 210 L 660 210 Z M 660 154 " clip-rule="nonzero"/></clipPath><clipPath id="d61ee2324a"><path d="M 687.679688 154.554688 C 688.585938 154.554688 689.488281 154.601562 690.386719 154.6875 C 691.289062 154.777344 692.183594 154.910156 693.070312 155.085938 C 693.957031 155.261719 694.835938 155.484375 695.699219 155.746094 C 696.566406 156.007812 697.417969 156.3125 698.253906 156.660156 C 699.089844 157.003906 699.90625 157.390625 700.703125 157.816406 C 701.5 158.246094 702.277344 158.710938 703.027344 159.210938 C 703.78125 159.714844 704.507812 160.253906 705.207031 160.828125 C 705.90625 161.402344 706.574219 162.007812 707.214844 162.648438 C 707.855469 163.289062 708.460938 163.957031 709.035156 164.65625 C 709.609375 165.355469 710.148438 166.082031 710.652344 166.832031 C 711.152344 167.585938 711.617188 168.363281 712.046875 169.160156 C 712.472656 169.957031 712.859375 170.773438 713.203125 171.609375 C 713.550781 172.445312 713.855469 173.296875 714.117188 174.164062 C 714.378906 175.027344 714.601562 175.90625 714.777344 176.792969 C 714.953125 177.679688 715.085938 178.574219 715.175781 179.472656 C 715.261719 180.375 715.308594 181.277344 715.308594 182.183594 C 715.308594 183.085938 715.261719 183.988281 715.175781 184.890625 C 715.085938 185.789062 714.953125 186.683594 714.777344 187.570312 C 714.601562 188.460938 714.378906 189.335938 714.117188 190.203125 C 713.855469 191.066406 713.550781 191.917969 713.203125 192.753906 C 712.859375 193.589844 712.472656 194.40625 712.046875 195.207031 C 711.617188 196.003906 711.152344 196.777344 710.652344 197.53125 C 710.148438 198.28125 709.609375 199.007812 709.035156 199.707031 C 708.460938 200.40625 707.855469 201.078125 707.214844 201.71875 C 706.574219 202.355469 705.90625 202.964844 705.207031 203.539062 C 704.507812 204.113281 703.78125 204.648438 703.027344 205.152344 C 702.277344 205.65625 701.5 206.121094 700.703125 206.546875 C 699.90625 206.972656 699.089844 207.359375 698.253906 207.707031 C 697.417969 208.050781 696.566406 208.355469 695.699219 208.621094 C 694.835938 208.882812 693.957031 209.101562 693.070312 209.277344 C 692.183594 209.453125 691.289062 209.585938 690.386719 209.675781 C 689.488281 209.765625 688.585938 209.808594 687.679688 209.808594 C 686.777344 209.808594 685.875 209.765625 684.972656 209.675781 C 684.074219 209.585938 683.179688 209.453125 682.292969 209.277344 C 681.402344 209.101562 680.527344 208.882812 679.660156 208.621094 C 678.796875 208.355469 677.945312 208.050781 677.109375 207.707031 C 676.273438 207.359375 675.457031 206.972656 674.65625 206.546875 C 673.859375 206.121094 673.085938 205.65625 672.332031 205.152344 C 671.578125 204.648438 670.855469 204.113281 670.15625 203.539062 C 669.457031 202.964844 668.785156 202.355469 668.144531 201.71875 C 667.507812 201.078125 666.898438 200.40625 666.324219 199.707031 C 665.75 199.007812 665.210938 198.28125 664.710938 197.53125 C 664.207031 196.777344 663.742188 196.003906 663.316406 195.207031 C 662.890625 194.40625 662.503906 193.589844 662.15625 192.753906 C 661.8125 191.917969 661.507812 191.066406 661.242188 190.203125 C 660.980469 189.335938 660.761719 188.460938 660.585938 187.570312 C 660.410156 186.683594 660.277344 185.789062 660.1875 184.890625 C 660.097656 183.988281 660.054688 183.085938 660.054688 182.183594 C 660.054688 181.277344 660.097656 180.375 660.1875 179.472656 C 660.277344 178.574219 660.410156 177.679688 660.585938 176.792969 C 660.761719 175.90625 660.980469 175.027344 661.242188 174.164062 C 661.507812 173.296875 661.8125 172.445312 662.15625 171.609375 C 662.503906 170.773438 662.890625 169.957031 663.316406 169.160156 C 663.742188 168.363281 664.207031 167.585938 664.710938 166.832031 C 665.214844 166.082031 665.75 165.355469 666.324219 164.65625 C 666.898438 163.957031 667.507812 163.289062 668.144531 162.648438 C 668.785156 162.007812 669.457031 161.402344 670.15625 160.828125 C 670.855469 160.253906 671.578125 159.714844 672.332031 159.210938 C 673.085938 158.710938 673.859375 158.246094 674.65625 157.816406 C 675.457031 157.390625 676.273438 157.003906 677.109375 156.660156 C 677.945312 156.3125 678.796875 156.007812 679.660156 155.746094 C 680.527344 155.484375 681.402344 155.261719 682.292969 155.085938 C 683.179688 154.910156 684.074219 154.777344 684.972656 154.6875 C 685.875 154.601562 686.777344 154.554688 687.679688 154.554688 Z M 687.679688 154.554688 " clip-rule="nonzero"/></clipPath><linearGradient x1="76.261997" gradientTransform="matrix(8.200195, 0, 0, 8.200195, 34.691132, 14.09482)" y1="17.129" x2="83.396585" gradientUnits="userSpaceOnUse" y2="17.578974" id="2bff5cb697"><stop stop-opacity="1" stop-color="rgb(26.699829%, 36.898804%, 71.398926%)" offset="0"/><stop stop-opacity="1" stop-color="rgb(26.786804%, 36.766052%, 71.510315%)" offset="0.015625"/><stop stop-opacity="1" stop-color="rgb(26.96228%, 36.502075%, 71.734619%)" offset="0.03125"/><stop stop-opacity="1" stop-color="rgb(27.139282%, 36.238098%, 71.960449%)" offset="0.046875"/><stop stop-opacity="1" stop-color="rgb(27.314758%, 35.974121%, 72.184753%)" offset="0.0593276"/><stop stop-opacity="1" stop-color="rgb(27.403259%, 35.842896%, 72.297668%)" offset="0.0625"/><stop stop-opacity="1" stop-color="rgb(27.490234%, 35.710144%, 72.409058%)" offset="0.078125"/><stop stop-opacity="1" stop-color="rgb(27.667236%, 35.446167%, 72.633362%)" offset="0.09375"/><stop stop-opacity="1" stop-color="rgb(27.842712%, 35.18219%, 72.857666%)" offset="0.109375"/><stop stop-opacity="1" stop-color="rgb(28.018188%, 34.918213%, 73.08197%)" offset="0.125"/><stop stop-opacity="1" stop-color="rgb(28.193665%, 34.655762%, 73.306274%)" offset="0.140625"/><stop stop-opacity="1" stop-color="rgb(28.370667%, 34.391785%, 73.530579%)" offset="0.15625"/><stop stop-opacity="1" stop-color="rgb(28.546143%, 34.127808%, 73.756409%)" offset="0.171875"/><stop stop-opacity="1" stop-color="rgb(28.721619%, 33.863831%, 73.980713%)" offset="0.1875"/><stop stop-opacity="1" stop-color="rgb(28.898621%, 33.599854%, 74.205017%)" offset="0.203125"/><stop stop-opacity="1" stop-color="rgb(29.074097%, 33.335876%, 74.429321%)" offset="0.21875"/><stop stop-opacity="1" stop-color="rgb(29.249573%, 33.071899%, 74.653625%)" offset="0.234375"/><stop stop-opacity="1" stop-color="rgb(29.426575%, 32.807922%, 74.87793%)" offset="0.25"/><stop stop-opacity="1" stop-color="rgb(29.602051%, 32.543945%, 75.102234%)" offset="0.265625"/><stop stop-opacity="1" stop-color="rgb(29.777527%, 32.279968%, 75.328064%)" offset="0.28125"/><stop stop-opacity="1" stop-color="rgb(29.954529%, 32.015991%, 75.552368%)" offset="0.296875"/><stop stop-opacity="1" stop-color="rgb(30.130005%, 31.752014%, 75.776672%)" offset="0.3125"/><stop stop-opacity="1" stop-color="rgb(30.305481%, 31.488037%, 76.000977%)" offset="0.328125"/><stop stop-opacity="1" stop-color="rgb(30.482483%, 31.22406%, 76.225281%)" offset="0.34375"/><stop stop-opacity="1" stop-color="rgb(30.657959%, 30.960083%, 76.449585%)" offset="0.359375"/><stop stop-opacity="1" stop-color="rgb(30.833435%, 30.696106%, 76.673889%)" offset="0.375"/><stop stop-opacity="1" stop-color="rgb(31.010437%, 30.432129%, 76.898193%)" offset="0.390625"/><stop stop-opacity="1" stop-color="rgb(31.185913%, 30.168152%, 77.124023%)" offset="0.40625"/><stop stop-opacity="1" stop-color="rgb(31.361389%, 29.904175%, 77.348328%)" offset="0.421875"/><stop stop-opacity="1" stop-color="rgb(31.538391%, 29.640198%, 77.572632%)" offset="0.4375"/><stop stop-opacity="1" stop-color="rgb(31.713867%, 29.376221%, 77.796936%)" offset="0.453125"/><stop stop-opacity="1" stop-color="rgb(31.889343%, 29.112244%, 78.02124%)" offset="0.46875"/><stop stop-opacity="1" stop-color="rgb(32.064819%, 28.848267%, 78.245544%)" offset="0.484375"/><stop stop-opacity="1" stop-color="rgb(32.241821%, 28.58429%, 78.469849%)" offset="0.5"/><stop stop-opacity="1" stop-color="rgb(32.418823%, 28.323364%, 78.694153%)" offset="0.515625"/><stop stop-opacity="1" stop-color="rgb(32.621765%, 28.144836%, 78.887939%)" offset="0.53125"/><stop stop-opacity="1" stop-color="rgb(32.850647%, 28.045654%, 79.051208%)" offset="0.546875"/><stop stop-opacity="1" stop-color="rgb(33.079529%, 27.944946%, 79.216003%)" offset="0.5625"/><stop stop-opacity="1" stop-color="rgb(33.308411%, 27.845764%, 79.380798%)" offset="0.578125"/><stop stop-opacity="1" stop-color="rgb(33.537292%, 27.745056%, 79.544067%)" offset="0.59375"/><stop stop-opacity="1" stop-color="rgb(33.766174%, 27.645874%, 79.708862%)" offset="0.609375"/><stop stop-opacity="1" stop-color="rgb(33.995056%, 27.545166%, 79.873657%)" offset="0.625"/><stop stop-opacity="1" stop-color="rgb(34.223938%, 27.445984%, 80.036926%)" offset="0.640625"/><stop stop-opacity="1" stop-color="rgb(34.451294%, 27.346802%, 80.201721%)" offset="0.65625"/><stop stop-opacity="1" stop-color="rgb(34.680176%, 27.246094%, 80.366516%)" offset="0.671875"/><stop stop-opacity="1" stop-color="rgb(34.909058%, 27.146912%, 80.529785%)" offset="0.6875"/><stop stop-opacity="1" stop-color="rgb(35.137939%, 27.046204%, 80.69458%)" offset="0.703125"/><stop stop-opacity="1" stop-color="rgb(35.366821%, 26.947021%, 80.859375%)" offset="0.71875"/><stop stop-opacity="1" stop-color="rgb(35.595703%, 26.846313%, 81.022644%)" offset="0.734375"/><stop stop-opacity="1" stop-color="rgb(35.824585%, 26.747131%, 81.187439%)" offset="0.75"/><stop stop-opacity="1" stop-color="rgb(36.053467%, 26.646423%, 81.352234%)" offset="0.765625"/><stop stop-opacity="1" stop-color="rgb(36.282349%, 26.547241%, 81.515503%)" offset="0.78125"/><stop stop-opacity="1" stop-color="rgb(36.51123%, 26.448059%, 81.680298%)" offset="0.796875"/><stop stop-opacity="1" stop-color="rgb(36.738586%, 26.347351%, 81.845093%)" offset="0.8125"/><stop stop-opacity="1" stop-color="rgb(36.967468%, 26.248169%, 82.008362%)" offset="0.828125"/><stop stop-opacity="1" stop-color="rgb(37.19635%, 26.147461%, 82.173157%)" offset="0.84375"/><stop stop-opacity="1" stop-color="rgb(37.425232%, 26.048279%, 82.337952%)" offset="0.859375"/><stop stop-opacity="1" stop-color="rgb(37.654114%, 25.947571%, 82.501221%)" offset="0.875"/><stop stop-opacity="1" stop-color="rgb(37.882996%, 25.848389%, 82.666016%)" offset="0.890625"/><stop stop-opacity="1" stop-color="rgb(38.111877%, 25.747681%, 82.830811%)" offset="0.90625"/><stop stop-opacity="1" stop-color="rgb(38.340759%, 25.648499%, 82.99408%)" offset="0.921875"/><stop stop-opacity="1" stop-color="rgb(38.569641%, 25.549316%, 83.158875%)" offset="0.9375"/><stop stop-opacity="1" stop-color="rgb(38.798523%, 25.448608%, 83.323669%)" offset="0.940672"/><stop stop-opacity="1" stop-color="rgb(38.912964%, 25.39978%, 83.406067%)" offset="0.953125"/><stop stop-opacity="1" stop-color="rgb(39.025879%, 25.349426%, 83.486938%)" offset="0.96875"/><stop stop-opacity="1" stop-color="rgb(39.254761%, 25.248718%, 83.651733%)" offset="0.984375"/><stop stop-opacity="1" stop-color="rgb(39.483643%, 25.149536%, 83.816528%)" offset="1"/></linearGradient></defs><g clip-path="url(#5f59b8091d)"><path fill="#000000" d="M 104.011719 209.808594 C 89.570312 209.808594 77.167969 206.636719 66.808594 200.296875 C 56.511719 193.953125 48.566406 185.195312 42.980469 174.019531 C 37.453125 162.777344 34.691406 149.84375 34.691406 135.214844 C 34.691406 120.523438 37.515625 107.554688 43.167969 96.316406 C 48.820312 85.015625 56.792969 76.226562 67.089844 69.945312 C 77.449219 63.605469 89.695312 60.433594 103.820312 60.433594 C 115.5625 60.433594 125.957031 62.597656 134.996094 66.933594 C 144.101562 71.203125 151.355469 77.261719 156.753906 85.109375 C 162.152344 92.894531 165.230469 102 165.984375 112.421875 L 133.394531 112.421875 C 132.078125 105.453125 128.9375 99.644531 123.976562 95 C 119.078125 90.289062 112.519531 87.933594 104.292969 87.933594 C 97.324219 87.933594 91.203125 89.820312 85.925781 93.585938 C 80.652344 97.289062 76.539062 102.628906 73.589844 109.597656 C 70.699219 116.566406 69.257812 124.917969 69.257812 134.648438 C 69.257812 144.507812 70.699219 152.984375 73.589844 160.078125 C 76.476562 167.113281 80.527344 172.542969 85.738281 176.375 C 91.011719 180.140625 97.199219 182.023438 104.292969 182.023438 C 109.316406 182.023438 113.804688 181.082031 117.761719 179.199219 C 121.78125 177.253906 125.136719 174.457031 127.839844 170.816406 C 130.539062 167.175781 132.390625 162.746094 133.394531 157.535156 L 165.984375 157.535156 C 165.167969 167.769531 162.152344 176.84375 156.941406 184.753906 C 151.730469 192.605469 144.636719 198.757812 135.65625 203.214844 C 126.675781 207.609375 116.128906 209.808594 104.011719 209.808594 Z M 104.011719 209.808594 " fill-opacity="1" fill-rule="nonzero"/></g><path fill="#000000" d="M 278.230469 146.140625 L 278.230469 62.316406 L 312.324219 62.316406 L 312.324219 206.984375 L 279.265625 206.984375 L 279.265625 181.269531 L 277.757812 181.269531 C 274.492188 189.371094 269.125 195.996094 261.652344 201.144531 C 254.242188 206.292969 245.105469 208.867188 234.246094 208.867188 C 224.761719 208.867188 216.382812 206.761719 209.097656 202.554688 C 201.875 198.285156 196.226562 192.101562 192.144531 184.003906 C 188.0625 175.839844 186.023438 165.980469 186.023438 154.429688 L 186.023438 62.316406 L 220.117188 62.316406 L 220.117188 149.15625 C 220.117188 158.320312 222.628906 165.605469 227.652344 171.003906 C 232.675781 176.40625 239.269531 179.105469 247.429688 179.105469 C 252.453125 179.105469 257.320312 177.878906 262.027344 175.429688 C 266.738281 172.984375 270.597656 169.339844 273.613281 164.507812 C 276.691406 159.609375 278.230469 153.488281 278.230469 146.140625 Z M 278.230469 146.140625 " fill-opacity="1" fill-rule="nonzero"/><g clip-path="url(#ac2dbab65e)"><path fill="#000000" d="M 340.933594 206.984375 L 340.933594 14.09375 L 375.027344 14.09375 L 375.027344 86.238281 L 376.441406 86.238281 C 378.199219 82.722656 380.679688 78.988281 383.878906 75.03125 C 387.082031 71.011719 391.414062 67.589844 396.878906 64.765625 C 402.339844 61.878906 409.308594 60.433594 417.785156 60.433594 C 428.964844 60.433594 439.042969 63.289062 448.019531 69.003906 C 457.0625 74.65625 464.21875 83.039062 469.496094 94.152344 C 474.832031 105.203125 477.5 118.765625 477.5 134.839844 C 477.5 150.722656 474.894531 164.222656 469.683594 175.335938 C 464.472656 186.449219 457.375 194.925781 448.398438 200.765625 C 439.417969 206.605469 429.246094 209.527344 417.882812 209.527344 C 409.59375 209.527344 402.71875 208.144531 397.253906 205.382812 C 391.792969 202.617188 387.398438 199.292969 384.070312 195.398438 C 380.804688 191.441406 378.261719 187.707031 376.441406 184.191406 L 374.464844 184.191406 L 374.464844 206.984375 Z M 374.367188 134.648438 C 374.367188 144.003906 375.6875 152.199219 378.324219 159.230469 C 381.023438 166.265625 384.886719 171.757812 389.910156 175.714844 C 394.996094 179.605469 401.148438 181.554688 408.367188 181.554688 C 415.902344 181.554688 422.214844 179.542969 427.300781 175.527344 C 432.386719 171.445312 436.214844 165.886719 438.789062 158.855469 C 441.425781 151.757812 442.746094 143.691406 442.746094 134.648438 C 442.746094 125.671875 441.457031 117.695312 438.882812 110.726562 C 436.308594 103.757812 432.480469 98.296875 427.394531 94.339844 C 422.308594 90.382812 415.964844 88.40625 408.367188 88.40625 C 401.085938 88.40625 394.898438 90.320312 389.816406 94.152344 C 384.730469 97.980469 380.867188 103.351562 378.230469 110.257812 C 375.65625 117.164062 374.367188 125.292969 374.367188 134.648438 Z M 374.367188 134.648438 " fill-opacity="1" fill-rule="nonzero"/></g><path fill="#000000" d="M 562.574219 209.808594 C 548.070312 209.808594 535.542969 206.792969 524.992188 200.765625 C 514.507812 194.675781 506.4375 186.074219 500.789062 174.960938 C 495.136719 163.785156 492.3125 150.628906 492.3125 135.496094 C 492.3125 120.617188 495.136719 107.554688 500.789062 96.316406 C 506.503906 85.015625 514.476562 76.226562 524.710938 69.945312 C 534.945312 63.605469 546.96875 60.433594 560.785156 60.433594 C 569.699219 60.433594 578.113281 61.878906 586.023438 64.765625 C 594 67.589844 601.03125 71.988281 607.121094 77.953125 C 613.273438 83.917969 618.109375 91.515625 621.625 100.742188 C 625.140625 109.910156 626.898438 120.835938 626.898438 133.519531 L 626.898438 143.972656 L 508.324219 143.972656 L 508.324219 120.992188 L 594.21875 120.992188 C 594.15625 114.464844 592.742188 108.65625 589.980469 103.570312 C 587.21875 98.421875 583.355469 94.371094 578.394531 91.417969 C 573.496094 88.46875 567.785156 86.992188 561.253906 86.992188 C 554.285156 86.992188 548.164062 88.6875 542.886719 92.078125 C 537.613281 95.40625 533.5 99.800781 530.550781 105.265625 C 527.664062 110.664062 526.1875 116.597656 526.125 123.066406 L 526.125 143.125 C 526.125 151.539062 527.664062 158.761719 530.738281 164.789062 C 533.816406 170.753906 538.117188 175.335938 543.640625 178.539062 C 549.167969 181.679688 555.632812 183.25 563.042969 183.25 C 568.003906 183.25 572.492188 182.558594 576.511719 181.175781 C 580.53125 179.730469 584.015625 177.628906 586.964844 174.867188 C 589.917969 172.105469 592.144531 168.679688 593.652344 164.601562 L 625.488281 168.179688 C 623.476562 176.59375 619.648438 183.941406 613.996094 190.21875 C 608.410156 196.433594 601.25 201.269531 592.523438 204.722656 C 583.796875 208.113281 573.8125 209.808594 562.574219 209.808594 Z M 562.574219 209.808594 " fill-opacity="1" fill-rule="nonzero"/><g clip-path="url(#ce5f3345b4)"><g clip-path="url(#d61ee2324a)"><path fill="url(#2bff5cb697)" d="M 660.054688 154.554688 L 660.054688 209.808594 L 715.308594 209.808594 L 715.308594 154.554688 Z M 660.054688 154.554688 " fill-rule="nonzero"/></g></g></svg>